# xmcd
#
# Track frame offsets:
#	150
#	20430
#	37332
#	58452
#	76125
#	94340
#	110020
#	128527
#	149157
#	165277
#	181842
#	196970
#	217640
#	239015
#
# Disc length: 3491 seconds
#
# Revision: 0
# Processed by: cddbd v1.5.2PL0 Copyright (c) Steve Scherf et al.
# Submitted via: EZCDAudioConverter 2.0.5.1
#
DISCID=c60da10e
DTITLE=Jean-Francois Breau
DYEAR=2001
DGENRE=Chanson quebecoise
TTITLE0=Le dernier matin
TTITLE1=Qui d'autre que moi
TTITLE2=Ca laisse a desirer
TTITLE3=Si le monde s'endort
TTITLE4=Plus loin
TTITLE5=Ciel
TTITLE6=Je t'attendrai
TTITLE7=Bleu-vert
TTITLE8=Un seul Dieu
TTITLE9=Je m'en irai
TTITLE10=Remember... notre histoire
TTITLE11=L'autre cote
TTITLE12=Belle rebelle
TTITLE13=Est-ce une vie
EXTD=
EXTT0=
EXTT1=
EXTT2=
EXTT3=
EXTT4=
EXTT5=
EXTT6=
EXTT7=
EXTT8=
EXTT9=
EXTT10=
EXTT11=
EXTT12=
EXTT13=
PLAYORDER=
